<svg width="83" height="82" viewBox="0 0 83 82" fill="none" xmlns="http://www.w3.org/2000/svg">
<mask id="mask0_109005_2918" style="mask-type:luminance" maskUnits="userSpaceOnUse" x="0" y="0" width="83" height="48">
<path d="M0 0H82.63V47.4841H0V0Z" fill="white"/>
</mask>
<g mask="url(#mask0_109005_2918)">
<path d="M82.5682 33.2958C82.5253 39.5736 78.3429 44.7646 72.0907 46.285C71.5035 46.4261 70.9003 46.494 70.1523 46.622L70.1335 41.7837L68.9217 41.789C59.7123 41.8229 50.5002 41.8621 41.2908 41.9039C40.5669 41.9091 40.0441 41.7341 39.5293 41.2168C37.7438 39.4247 35.9153 37.6743 34.0707 35.9397C33.7946 35.681 33.3522 35.4485 32.9849 35.4485C26.3654 35.4433 19.7485 35.4772 13.1317 35.5034C13.0111 35.5034 12.8904 35.5243 12.6706 35.5478L12.7135 46.8206C12.0459 46.7291 11.4855 46.6795 10.9386 46.5724C4.49872 45.3001 0.0240467 39.7617 0.150056 33.2331C0.276066 26.8248 4.96522 21.4666 11.3649 20.4007C11.9413 20.3041 12.743 20.3067 13.0084 19.9514C13.306 19.5569 13.054 18.8019 13.1371 18.2167C14.0138 12.0696 17.038 7.1477 22.3411 3.74366C33.5479 -3.44584 47.9961 0.7968 53.4038 12.7619C53.7094 13.4359 54.0285 14.1047 54.3931 14.8884C55.0017 14.3529 55.5379 13.8826 56.0714 13.4098C58.664 11.1108 61.6721 10.5334 64.9108 11.6751C68.171 12.822 70.037 15.2542 70.5223 18.5746C70.6858 19.7058 71.1202 20.1107 72.2274 20.385C78.6325 21.9708 82.6085 26.9946 82.5682 33.2958Z" fill="#00AEEF"/>
</g>
<mask id="mask1_109005_2918" style="mask-type:luminance" maskUnits="userSpaceOnUse" x="17" y="55" width="57" height="27">
<path d="M17.0327 55.5097H73.3133V81.07H17.0327V55.5097Z" fill="white"/>
</mask>
<g mask="url(#mask1_109005_2918)">
<path d="M73.1337 56.0139C73.0399 56.4371 72.9729 56.7794 72.8871 57.1164C70.9782 64.7395 69.0505 72.3601 67.1711 79.9885C66.9888 80.7226 66.6778 80.9002 65.9432 80.9028C50.0231 80.942 34.103 80.9943 18.1829 81.0648L17.1963 81.0674C17.9416 78.1049 18.6521 75.2808 19.3599 72.4568C20.6468 67.3154 21.9417 62.1793 23.2018 57.0328C23.3547 56.411 23.5772 56.1759 24.2769 56.1759C40.256 56.1393 56.2378 56.0871 72.2195 56.0165L73.1337 56.0139Z" fill="#FFD662"/>
</g>
<path d="M66.4644 45.5061C66.4724 47.6737 66.4939 49.6971 66.4644 51.7206C66.4617 51.8909 66.1347 52.1268 65.9095 52.2054C65.6683 52.2919 65.368 52.229 65.0946 52.2317C50.6144 52.2841 36.1341 52.3313 21.6512 52.3679C20.7183 52.3706 20.3618 52.6117 20.1474 53.5238C19.1609 57.7384 18.0807 61.932 17.0326 66.1309C16.9763 66.3589 16.9012 66.5817 16.7029 66.8124C16.6841 66.6053 16.6466 66.3982 16.6466 66.1912C16.6091 57.5078 16.5876 48.8243 16.526 40.1409C16.5206 39.3336 16.7672 39.1423 17.558 39.1449C22.131 39.1633 26.704 39.1135 31.277 39.1318C31.7059 39.1344 32.2286 39.352 32.5449 39.6403C34.4802 41.4121 36.3512 43.2573 38.2946 45.0212C38.6484 45.3436 39.2355 45.5795 39.7153 45.5795C48.2206 45.5821 56.726 45.5428 65.2313 45.5114L66.4644 45.5061Z" fill="#FFD662"/>
</svg>
