<svg width="223" height="82" viewBox="0 0 223 82" fill="none" xmlns="http://www.w3.org/2000/svg">
<path d="M112.635 27.4688C115.404 27.4688 117.823 28.0051 119.894 29.0777C121.989 30.1253 123.598 31.6469 124.721 33.6425C125.868 35.613 126.442 37.9204 126.442 40.5644C126.442 43.2085 125.868 45.5034 124.721 47.449C123.598 49.3947 121.989 50.8913 119.894 51.939C117.823 52.9617 115.404 53.473 112.635 53.473H104.142V27.4688H112.635ZM112.635 49.9933C115.678 49.9933 118.011 49.1702 119.632 47.5239C121.253 45.8775 122.064 43.5577 122.064 40.5644C122.064 37.5462 121.253 35.189 119.632 33.4928C118.011 31.7966 115.678 30.9485 112.635 30.9485H108.407V49.9933H112.635ZM134.935 35.85C135.558 34.8024 136.381 33.9917 137.404 33.418C138.452 32.8193 139.686 32.52 141.108 32.52V36.9351H140.023C138.352 36.9351 137.08 37.3591 136.207 38.2072C135.359 39.0553 134.935 40.527 134.935 42.6223V53.473H130.669V32.8567H134.935V35.85ZM147.199 30.1253C146.426 30.1253 145.777 29.8634 145.254 29.3396C144.73 28.8158 144.468 28.1672 144.468 27.394C144.468 26.6207 144.73 25.9722 145.254 25.4483C145.777 24.9245 146.426 24.6626 147.199 24.6626C147.947 24.6626 148.584 24.9245 149.107 25.4483C149.631 25.9722 149.893 26.6207 149.893 27.394C149.893 28.1672 149.631 28.8158 149.107 29.3396C148.584 29.8634 147.947 30.1253 147.199 30.1253ZM149.294 32.8567V53.473H145.029V32.8567H149.294ZM162.864 49.6566L168.701 32.8567H173.229L165.371 53.473H160.283L152.463 32.8567H157.027L162.864 49.6566ZM195.348 42.6598C195.348 43.433 195.298 44.1315 195.198 44.7551H179.446C179.571 46.4014 180.182 47.7234 181.279 48.7212C182.377 49.7189 183.724 50.2178 185.32 50.2178C187.615 50.2178 189.237 49.2575 190.184 47.3368H194.787C194.163 49.2325 193.028 50.7915 191.382 52.0138C189.76 53.2111 187.74 53.8098 185.32 53.8098C183.35 53.8098 181.579 53.3732 180.007 52.5002C178.461 51.6022 177.238 50.355 176.341 48.7586C175.467 47.1372 175.031 45.2664 175.031 43.1462C175.031 41.0259 175.455 39.1676 176.303 37.5712C177.176 35.9498 178.386 34.7026 179.932 33.8295C181.504 32.9565 183.3 32.52 185.32 32.52C187.266 32.52 189 32.944 190.521 33.7921C192.043 34.6402 193.228 35.8375 194.076 37.3841C194.924 38.9057 195.348 40.6642 195.348 42.6598ZM190.895 41.3128C190.87 39.7413 190.309 38.4816 189.212 37.5337C188.114 36.5859 186.755 36.1119 185.133 36.1119C183.662 36.1119 182.402 36.5859 181.354 37.5337C180.307 38.4567 179.683 39.7164 179.483 41.3128H190.895ZM211.481 40.4896L219.563 53.473H214.774L208.9 44.0442L203.399 53.473H198.648L206.729 40.4896L198.61 27.4688H203.399L209.311 36.9725L214.849 27.4688H219.601L211.481 40.4896Z" fill="white"/>
<mask id="mask0_80001_6647" style="mask-type:luminance" maskUnits="userSpaceOnUse" x="0" y="0" width="83" height="48">
<path d="M0 0H82.63V47.4841H0V0Z" fill="white"/>
</mask>
<g mask="url(#mask0_80001_6647)">
<path d="M82.5682 33.2958C82.5253 39.5736 78.3429 44.7646 72.0907 46.285C71.5035 46.4261 70.9003 46.494 70.1523 46.622L70.1335 41.7837L68.9217 41.789C59.7123 41.8229 50.5002 41.8621 41.2908 41.9039C40.5669 41.9091 40.0441 41.7341 39.5293 41.2168C37.7438 39.4247 35.9153 37.6743 34.0707 35.9397C33.7946 35.681 33.3522 35.4485 32.9849 35.4485C26.3654 35.4433 19.7485 35.4772 13.1317 35.5034C13.0111 35.5034 12.8904 35.5243 12.6706 35.5478L12.7135 46.8206C12.0459 46.7291 11.4855 46.6795 10.9386 46.5724C4.49872 45.3001 0.0240467 39.7617 0.150056 33.2331C0.276066 26.8248 4.96522 21.4666 11.3649 20.4007C11.9413 20.3041 12.743 20.3067 13.0084 19.9514C13.306 19.5569 13.054 18.8019 13.1371 18.2167C14.0138 12.0696 17.038 7.1477 22.3411 3.74366C33.5479 -3.44584 47.9961 0.7968 53.4038 12.7619C53.7094 13.4359 54.0285 14.1047 54.3931 14.8884C55.0017 14.3529 55.5379 13.8826 56.0714 13.4098C58.664 11.1108 61.6721 10.5334 64.9108 11.6751C68.171 12.822 70.037 15.2542 70.5223 18.5746C70.6858 19.7058 71.1202 20.1107 72.2274 20.385C78.6325 21.9708 82.6085 26.9946 82.5682 33.2958Z" fill="#00AEEF"/>
</g>
<mask id="mask1_80001_6647" style="mask-type:luminance" maskUnits="userSpaceOnUse" x="17" y="55" width="57" height="27">
<path d="M17.0327 55.5097H73.3133V81.07H17.0327V55.5097Z" fill="white"/>
</mask>
<g mask="url(#mask1_80001_6647)">
<path d="M73.1337 56.0139C73.0399 56.4371 72.9729 56.7794 72.8871 57.1164C70.9782 64.7395 69.0505 72.3601 67.1711 79.9885C66.9888 80.7226 66.6778 80.9002 65.9432 80.9028C50.0231 80.942 34.103 80.9943 18.1829 81.0648L17.1963 81.0674C17.9416 78.1049 18.6521 75.2808 19.3599 72.4568C20.6468 67.3154 21.9417 62.1793 23.2018 57.0328C23.3547 56.411 23.5772 56.1759 24.2769 56.1759C40.256 56.1393 56.2378 56.0871 72.2195 56.0165L73.1337 56.0139Z" fill="#FFD662"/>
</g>
<path d="M66.4644 45.5061C66.4724 47.6737 66.4939 49.6971 66.4644 51.7206C66.4617 51.8909 66.1347 52.1268 65.9095 52.2054C65.6683 52.2919 65.368 52.229 65.0946 52.2317C50.6144 52.2841 36.1341 52.3313 21.6512 52.3679C20.7183 52.3706 20.3618 52.6117 20.1474 53.5238C19.1609 57.7384 18.0807 61.932 17.0326 66.1309C16.9763 66.3589 16.9012 66.5817 16.7029 66.8124C16.6841 66.6053 16.6466 66.3982 16.6466 66.1912C16.6091 57.5078 16.5876 48.8243 16.526 40.1409C16.5206 39.3336 16.7672 39.1423 17.558 39.1449C22.131 39.1633 26.704 39.1135 31.277 39.1318C31.7059 39.1344 32.2286 39.352 32.5449 39.6403C34.4802 41.4121 36.3512 43.2573 38.2946 45.0212C38.6484 45.3436 39.2355 45.5795 39.7153 45.5795C48.2206 45.5821 56.726 45.5428 65.2313 45.5114L66.4644 45.5061Z" fill="#FFD662"/>
</svg>
